<svg width="36" height="36" viewBox="0 0 36 36" fill="none" xmlns="http://www.w3.org/2000/svg">
<rect width="36" height="36" rx="18" fill="#95D8EA" fill-opacity="0.34"/>
<mask id="path-2-inside-1_95_1339" fill="white">
<path d="M18.5332 24.1982C18.7677 23.963 18.885 23.6753 18.885 23.3351C18.885 22.995 18.7677 22.7073 18.5332 22.4721C18.2986 22.2369 18.011 22.1197 17.6702 22.1203C17.3293 22.121 17.042 22.2385 16.8081 22.4731C16.5742 22.7076 16.4566 22.995 16.4553 23.3351C16.454 23.6753 16.5716 23.963 16.8081 24.1982C17.0446 24.4334 17.3319 24.5506 17.6702 24.55C18.0084 24.5493 18.296 24.4317 18.5332 24.1972M17.7187 28.4375C16.3743 28.4375 15.1109 28.1822 13.9284 27.6717C12.746 27.1611 11.7174 26.4688 10.8427 25.5948C9.96805 24.7207 9.27575 23.6921 8.76584 22.5091C8.25593 21.326 8.00065 20.0625 8 18.7187C7.99935 17.375 8.25463 16.1115 8.76584 14.9284C9.27704 13.7453 9.96934 12.7168 10.8427 11.8427C11.7161 10.9687 12.7447 10.2764 13.9284 9.76584C15.1122 9.25528 16.3756 9 17.7187 9C19.0619 9 20.3253 9.25528 21.5091 9.76584C22.6928 10.2764 23.7214 10.9687 24.5948 11.8427C25.4681 12.7168 26.1608 13.7453 26.6726 14.9284C27.1845 16.1115 27.4394 17.375 27.4375 18.7187C27.4355 20.0625 27.1803 21.326 26.6717 22.5091C26.163 23.6921 25.4707 24.7207 24.5948 25.5948C23.7188 26.4688 22.6902 27.1614 21.5091 27.6726C20.3279 28.1838 19.0645 28.4388 17.7187 28.4375ZM17.7187 26.4937C19.8893 26.4937 21.7277 25.7405 23.2341 24.2341C24.7405 22.7277 25.4937 20.8893 25.4937 18.7187C25.4937 16.5482 24.7405 14.7098 23.2341 13.2034C21.7277 11.697 19.8893 10.9437 17.7187 10.9437C15.5482 10.9437 13.7098 11.697 12.2034 13.2034C10.697 14.7098 9.94375 16.5482 9.94375 18.7187C9.94375 20.8893 10.697 22.7277 12.2034 24.2341C13.7098 25.7405 15.5482 26.4937 17.7187 26.4937ZM17.8159 14.5397C18.2209 14.5397 18.5733 14.6693 18.8733 14.9284C19.1733 15.1876 19.323 15.5116 19.3223 15.9003C19.3223 16.2567 19.2132 16.5725 18.9948 16.8479C18.7765 17.1233 18.5293 17.3824 18.2533 17.6254C17.8807 17.9493 17.5529 18.3057 17.2697 18.6944C16.9866 19.0832 16.8447 19.5205 16.8441 20.0065C16.8441 20.2332 16.9293 20.4237 17.0997 20.5779C17.2701 20.7321 17.4683 20.8089 17.6944 20.8083C17.9374 20.8083 18.1441 20.7273 18.3145 20.5653C18.4849 20.4033 18.5941 20.2009 18.642 19.9579C18.7068 19.6177 18.8526 19.3142 19.0794 19.0472C19.3061 18.7803 19.5491 18.525 19.8083 18.2814C20.1808 17.925 20.5009 17.5363 20.7685 17.1152C21.0361 16.694 21.1695 16.2243 21.1689 15.7059C21.1689 14.8798 20.833 14.2037 20.1611 13.6776C19.4892 13.1515 18.7075 12.8881 17.8159 12.8875C17.2004 12.8875 16.6134 13.0171 16.0549 13.2762C15.4964 13.5354 15.071 13.9323 14.7788 14.4668C14.6654 14.6612 14.6292 14.8679 14.67 15.0868C14.7108 15.3058 14.82 15.4717 14.9975 15.5844C15.2243 15.714 15.4591 15.7545 15.7021 15.7059C15.9451 15.6573 16.1475 15.5197 16.3095 15.2929C16.4877 15.0499 16.7106 14.8636 16.9782 14.7341C17.2458 14.6045 17.525 14.5397 17.8159 14.5397Z"/>
</mask>
<path d="M18.5332 24.1982C18.7677 23.963 18.885 23.6753 18.885 23.3351C18.885 22.995 18.7677 22.7073 18.5332 22.4721C18.2986 22.2369 18.011 22.1197 17.6702 22.1203C17.3293 22.121 17.042 22.2385 16.8081 22.4731C16.5742 22.7076 16.4566 22.995 16.4553 23.3351C16.454 23.6753 16.5716 23.963 16.8081 24.1982C17.0446 24.4334 17.3319 24.5506 17.6702 24.55C18.0084 24.5493 18.296 24.4317 18.5332 24.1972M17.7187 28.4375C16.3743 28.4375 15.1109 28.1822 13.9284 27.6717C12.746 27.1611 11.7174 26.4688 10.8427 25.5948C9.96805 24.7207 9.27575 23.6921 8.76584 22.5091C8.25593 21.326 8.00065 20.0625 8 18.7187C7.99935 17.375 8.25463 16.1115 8.76584 14.9284C9.27704 13.7453 9.96934 12.7168 10.8427 11.8427C11.7161 10.9687 12.7447 10.2764 13.9284 9.76584C15.1122 9.25528 16.3756 9 17.7187 9C19.0619 9 20.3253 9.25528 21.5091 9.76584C22.6928 10.2764 23.7214 10.9687 24.5948 11.8427C25.4681 12.7168 26.1608 13.7453 26.6726 14.9284C27.1845 16.1115 27.4394 17.375 27.4375 18.7187C27.4355 20.0625 27.1803 21.326 26.6717 22.5091C26.163 23.6921 25.4707 24.7207 24.5948 25.5948C23.7188 26.4688 22.6902 27.1614 21.5091 27.6726C20.3279 28.1838 19.0645 28.4388 17.7187 28.4375ZM17.7187 26.4937C19.8893 26.4937 21.7277 25.7405 23.2341 24.2341C24.7405 22.7277 25.4937 20.8893 25.4937 18.7187C25.4937 16.5482 24.7405 14.7098 23.2341 13.2034C21.7277 11.697 19.8893 10.9437 17.7187 10.9437C15.5482 10.9437 13.7098 11.697 12.2034 13.2034C10.697 14.7098 9.94375 16.5482 9.94375 18.7187C9.94375 20.8893 10.697 22.7277 12.2034 24.2341C13.7098 25.7405 15.5482 26.4937 17.7187 26.4937ZM17.8159 14.5397C18.2209 14.5397 18.5733 14.6693 18.8733 14.9284C19.1733 15.1876 19.323 15.5116 19.3223 15.9003C19.3223 16.2567 19.2132 16.5725 18.9948 16.8479C18.7765 17.1233 18.5293 17.3824 18.2533 17.6254C17.8807 17.9493 17.5529 18.3057 17.2697 18.6944C16.9866 19.0832 16.8447 19.5205 16.8441 20.0065C16.8441 20.2332 16.9293 20.4237 17.0997 20.5779C17.2701 20.7321 17.4683 20.8089 17.6944 20.8083C17.9374 20.8083 18.1441 20.7273 18.3145 20.5653C18.4849 20.4033 18.5941 20.2009 18.642 19.9579C18.7068 19.6177 18.8526 19.3142 19.0794 19.0472C19.3061 18.7803 19.5491 18.525 19.8083 18.2814C20.1808 17.925 20.5009 17.5363 20.7685 17.1152C21.0361 16.694 21.1695 16.2243 21.1689 15.7059C21.1689 14.8798 20.833 14.2037 20.1611 13.6776C19.4892 13.1515 18.7075 12.8881 17.8159 12.8875C17.2004 12.8875 16.6134 13.0171 16.0549 13.2762C15.4964 13.5354 15.071 13.9323 14.7788 14.4668C14.6654 14.6612 14.6292 14.8679 14.67 15.0868C14.7108 15.3058 14.82 15.4717 14.9975 15.5844C15.2243 15.714 15.4591 15.7545 15.7021 15.7059C15.9451 15.6573 16.1475 15.5197 16.3095 15.2929C16.4877 15.0499 16.7106 14.8636 16.9782 14.7341C17.2458 14.6045 17.525 14.5397 17.8159 14.5397Z" fill="black"/>
<path d="M17.7187 28.4375L17.7191 28.1113H17.7187V28.4375ZM17.7187 26.4937V26.1675V26.4937ZM19.3223 15.9003L18.9961 15.8998V15.9003H19.3223ZM18.2533 17.6254L18.4673 17.8716L18.4688 17.8702L18.2533 17.6254ZM16.8441 20.0065L16.5178 20.006V20.0065H16.8441ZM17.6944 20.8083V20.4821L17.6935 20.4821L17.6944 20.8083ZM18.642 19.9579L18.9621 20.021L18.9625 20.0189L18.642 19.9579ZM19.8083 18.2814L20.0317 18.5191L20.0338 18.5171L19.8083 18.2814ZM21.1689 15.7059H20.8427V15.7063L21.1689 15.7059ZM17.8159 12.8875L17.8162 12.5613H17.8159V12.8875ZM14.7788 14.4668L15.0607 14.6312L15.0651 14.6233L14.7788 14.4668ZM14.9975 15.5844L14.8226 15.8598L14.829 15.8639L14.8356 15.8677L14.9975 15.5844ZM16.3095 15.2929L16.0464 15.1L16.0441 15.1033L16.3095 15.2929ZM18.5332 24.1982L18.7642 24.4285C19.0613 24.1305 19.2112 23.7593 19.2112 23.3351H18.885H18.5588C18.5588 23.5913 18.4741 23.7954 18.3022 23.9678L18.5332 24.1982ZM18.885 23.3351H19.2112C19.2112 22.911 19.0613 22.5397 18.7642 22.2418L18.5332 22.4721L18.3022 22.7025C18.4741 22.8749 18.5588 23.079 18.5588 23.3351H18.885ZM18.5332 22.4721L18.7642 22.2418C18.4665 21.9433 18.0947 21.7933 17.6695 21.7941L17.6702 22.1203L17.6708 22.4465C17.9272 22.446 18.1308 22.5306 18.3022 22.7025L18.5332 22.4721ZM17.6702 22.1203L17.6695 21.7941C17.2451 21.7949 16.874 21.945 16.5771 22.2427L16.8081 22.4731L17.0391 22.7034C17.21 22.5321 17.4136 22.447 17.6708 22.4465L17.6702 22.1203ZM16.8081 22.4731L16.5771 22.2427C16.2807 22.5399 16.1307 22.9104 16.1291 23.3339L16.4553 23.3351L16.7815 23.3364C16.7825 23.0796 16.8677 22.8753 17.0391 22.7034L16.8081 22.4731ZM16.4553 23.3351L16.1291 23.3339C16.1275 23.7594 16.2783 24.1314 16.5781 24.4295L16.8081 24.1982L17.0381 23.9669C16.8649 23.7946 16.7806 23.5912 16.7815 23.3364L16.4553 23.3351ZM16.8081 24.1982L16.5781 24.4295C16.8768 24.7266 17.2475 24.877 17.6708 24.8762L17.6702 24.55L17.6695 24.2238C17.4164 24.2243 17.2124 24.1402 17.0381 23.9669L16.8081 24.1982ZM17.6702 24.55L17.6708 24.8762C18.0933 24.8754 18.4636 24.7249 18.7626 24.4291L18.5332 24.1972L18.3038 23.9653C18.1285 24.1386 17.9234 24.2233 17.6695 24.2238L17.6702 24.55ZM17.7187 28.4375V28.1113C16.4168 28.1113 15.1976 27.8643 14.0578 27.3722L13.9284 27.6717L13.7991 27.9711C15.0242 28.5001 16.3318 28.7637 17.7187 28.7637V28.4375ZM13.9284 27.6717L14.0578 27.3722C12.9115 26.8772 11.9177 26.2077 11.0733 25.364L10.8427 25.5948L10.6121 25.8255C11.5172 26.7299 12.5805 27.445 13.7991 27.9711L13.9284 27.6717ZM10.8427 25.5948L11.0733 25.364C10.2291 24.5204 9.55967 23.5267 9.06542 22.3799L8.76584 22.5091L8.46626 22.6382C8.99183 23.8576 9.70702 24.9211 10.6121 25.8255L10.8427 25.5948ZM8.76584 22.5091L9.06542 22.3799C8.57381 21.2393 8.32685 20.02 8.32622 18.7186L8 18.7187L7.67378 18.7189C7.67445 20.1051 7.93804 21.4126 8.46626 22.6382L8.76584 22.5091ZM8 18.7187L8.32622 18.7186C8.32559 17.4174 8.57252 16.1983 9.0653 15.0578L8.76584 14.9284L8.46638 14.799C7.93675 16.0248 7.67312 17.3325 7.67378 18.7189L8 18.7187ZM8.76584 14.9284L9.0653 15.0578C9.5609 13.9108 10.2304 12.917 11.0735 12.0733L10.8427 11.8427L10.612 11.6121C9.70827 12.5165 8.99319 13.5798 8.46638 14.799L8.76584 14.9284ZM10.8427 11.8427L11.0735 12.0733C11.9164 11.2297 12.9101 10.5603 14.0576 10.0654L13.9284 9.76584L13.7992 9.46629C12.5793 9.99248 11.5158 10.7076 10.612 11.6121L10.8427 11.8427ZM13.9284 9.76584L14.0576 10.0654C15.1989 9.57316 16.4181 9.32622 17.7187 9.32622V9V8.67378C16.3331 8.67378 15.0255 8.9374 13.7992 9.46629L13.9284 9.76584ZM17.7187 9V9.32622C19.0193 9.32622 20.2386 9.57316 21.3799 10.0654L21.5091 9.76584L21.6382 9.46629C20.412 8.9374 19.1044 8.67378 17.7187 8.67378V9ZM21.5091 9.76584L21.3799 10.0654C22.5274 10.5603 23.5211 11.2297 24.364 12.0733L24.5948 11.8427L24.8255 11.6121C23.9217 10.7076 22.8582 9.99248 21.6382 9.46629L21.5091 9.76584ZM24.5948 11.8427L24.364 12.0733C25.2071 12.917 25.877 13.9109 26.3732 15.058L26.6726 14.9284L26.972 14.7989C26.4446 13.5798 25.7292 12.5165 24.8255 11.6121L24.5948 11.8427ZM26.6726 14.9284L26.3732 15.058C26.8666 16.1983 27.1132 17.4173 27.1113 18.7183L27.4375 18.7187L27.7637 18.7192C27.7657 17.3327 27.5024 16.0248 26.972 14.7989L26.6726 14.9284ZM27.4375 18.7187L27.1113 18.7183C27.1094 20.0199 26.8624 21.2394 26.372 22.3802L26.6717 22.5091L26.9713 22.6379C27.4982 21.4125 27.7617 20.1052 27.7637 18.7192L27.4375 18.7187ZM26.6717 22.5091L26.372 22.3802C25.8791 23.5268 25.2098 24.5203 24.3643 25.3638L24.5948 25.5948L24.8252 25.8257C25.7317 24.9211 26.447 23.8575 26.9713 22.6379L26.6717 22.5091ZM24.5948 25.5948L24.3643 25.3638C23.5185 26.2078 22.5245 26.8777 21.3795 27.3732L21.5091 27.6726L21.6386 27.972C22.8559 27.4452 23.919 26.7298 24.8252 25.8257L24.5948 25.5948ZM21.5091 27.6726L21.3795 27.3732C20.2412 27.8659 19.0222 28.1125 17.7191 28.1113L17.7187 28.4375L17.7184 28.7637C19.1068 28.765 20.4146 28.5018 21.6386 27.972L21.5091 27.6726ZM17.7187 26.4937V26.82C19.974 26.82 21.8959 26.0337 23.4648 24.4648L23.2341 24.2341L23.0035 24.0035C21.5595 25.4474 19.8046 26.1675 17.7187 26.1675V26.4937ZM23.2341 24.2341L23.4648 24.4648C25.0337 22.8959 25.82 20.974 25.82 18.7187H25.4937H25.1675C25.1675 20.8046 24.4474 22.5595 23.0035 24.0035L23.2341 24.2341ZM25.4937 18.7187H25.82C25.82 16.4635 25.0337 14.5416 23.4648 12.9727L23.2341 13.2034L23.0035 13.434C24.4474 14.878 25.1675 16.6329 25.1675 18.7187H25.4937ZM23.2341 13.2034L23.4648 12.9727C21.8959 11.4038 19.974 10.6175 17.7187 10.6175V10.9437V11.27C19.8046 11.27 21.5595 11.9901 23.0035 13.434L23.2341 13.2034ZM17.7187 10.9437V10.6175C15.4635 10.6175 13.5416 11.4038 11.9727 12.9727L12.2034 13.2034L12.434 13.434C13.878 11.9901 15.6329 11.27 17.7187 11.27V10.9437ZM12.2034 13.2034L11.9727 12.9727C10.4038 14.5416 9.61753 16.4635 9.61753 18.7187H9.94375H10.27C10.27 16.6329 10.9901 14.878 12.434 13.434L12.2034 13.2034ZM9.94375 18.7187H9.61753C9.61753 20.974 10.4038 22.8959 11.9727 24.4648L12.2034 24.2341L12.434 24.0035C10.9901 22.5595 10.27 20.8046 10.27 18.7187H9.94375ZM12.2034 24.2341L11.9727 24.4648C13.5416 26.0337 15.4635 26.82 17.7187 26.82V26.4937V26.1675C15.6329 26.1675 13.878 25.4474 12.434 24.0035L12.2034 24.2341ZM17.8159 14.5397V14.8659C18.1444 14.8659 18.4207 14.9685 18.6601 15.1753L18.8733 14.9284L19.0866 14.6816C18.726 14.37 18.2973 14.2135 17.8159 14.2135V14.5397ZM18.8733 14.9284L18.6601 15.1753C18.8898 15.3738 18.9966 15.6081 18.9961 15.8998L19.3223 15.9003L19.6486 15.9009C19.6494 15.415 19.4568 15.0014 19.0866 14.6816L18.8733 14.9284ZM19.3223 15.9003H18.9961C18.9961 16.1842 18.9111 16.4284 18.7392 16.6452L18.9948 16.8479L19.2504 17.0506C19.5152 16.7167 19.6486 16.3291 19.6486 15.9003H19.3223ZM18.9948 16.8479L18.7392 16.6452C18.5335 16.9047 18.2998 17.1498 18.0377 17.3805L18.2533 17.6254L18.4688 17.8702C18.7587 17.615 19.0195 17.3418 19.2504 17.0506L18.9948 16.8479ZM18.2533 17.6254L18.0392 17.3792C17.6486 17.7189 17.304 18.0933 17.006 18.5024L17.2697 18.6944L17.5334 18.8865C17.8017 18.5181 18.1128 18.1798 18.4673 17.8716L18.2533 17.6254ZM17.2697 18.6944L17.006 18.5024C16.6819 18.9474 16.5186 19.452 16.5178 20.006L16.8441 20.0065L17.1703 20.0069C17.1708 19.5891 17.2913 19.219 17.5334 18.8865L17.2697 18.6944ZM16.8441 20.0065H16.5178C16.5178 20.3268 16.6431 20.6047 16.8808 20.8198L17.0997 20.5779L17.3185 20.3361C17.2154 20.2428 17.1703 20.1397 17.1703 20.0065H16.8441ZM17.0997 20.5779L16.8808 20.8198C17.1103 21.0275 17.3866 21.1354 17.6954 21.1345L17.6944 20.8083L17.6935 20.4821C17.5501 20.4825 17.4298 20.4368 17.3185 20.3361L17.0997 20.5779ZM17.6944 20.8083V21.1345C18.018 21.1345 18.306 21.0235 18.5393 20.8017L18.3145 20.5653L18.0898 20.3289C17.9822 20.4311 17.8569 20.4821 17.6944 20.4821V20.8083ZM18.3145 20.5653L18.5393 20.8017C18.7613 20.5907 18.9018 20.3265 18.9621 20.021L18.642 19.9579L18.322 19.8947C18.2864 20.0752 18.2085 20.216 18.0898 20.3289L18.3145 20.5653ZM18.642 19.9579L18.9625 20.0189C19.0166 19.7349 19.1373 19.4829 19.328 19.2584L19.0794 19.0472L18.8308 18.836C18.5679 19.1455 18.397 19.5006 18.3216 19.8968L18.642 19.9579ZM19.0794 19.0472L19.328 19.2584C19.5467 19.0009 19.7813 18.7545 20.0317 18.5191L19.8083 18.2814L19.5848 18.0437C19.3169 18.2955 19.0655 18.5597 18.8308 18.836L19.0794 19.0472ZM19.8083 18.2814L20.0338 18.5171C20.4247 18.1432 20.7617 17.7342 21.0438 17.2901L20.7685 17.1152L20.4931 16.9402C20.2401 17.3384 19.937 17.7069 19.5828 18.0457L19.8083 18.2814ZM20.7685 17.1152L21.0438 17.2901C21.3461 16.8144 21.4958 16.2834 21.4951 15.7055L21.1689 15.7059L20.8427 15.7063C20.8433 16.1651 20.7261 16.5736 20.4931 16.9402L20.7685 17.1152ZM21.1689 15.7059H21.4951C21.4951 14.7758 21.11 14.0063 20.3622 13.4208L20.1611 13.6776L19.9599 13.9345C20.5559 14.4011 20.8427 14.9839 20.8427 15.7059H21.1689ZM20.1611 13.6776L20.3622 13.4208C19.6303 12.8477 18.777 12.562 17.8162 12.5613L17.8159 12.8875L17.8157 13.2137C18.6379 13.2143 19.3481 13.4554 19.9599 13.9345L20.1611 13.6776ZM17.8159 12.8875V12.5613C17.153 12.5613 16.5191 12.7012 15.9176 12.9803L16.0549 13.2762L16.1922 13.5722C16.7077 13.3329 17.2479 13.2137 17.8159 13.2137V12.8875ZM16.0549 13.2762L15.9176 12.9803C15.2965 13.2685 14.8186 13.7139 14.4926 14.3103L14.7788 14.4668L15.0651 14.6233C15.3234 14.1506 15.6962 13.8023 16.1922 13.5722L16.0549 13.2762ZM14.7788 14.4668L14.497 14.3024C14.3447 14.5637 14.294 14.8498 14.3493 15.1466L14.67 15.0868L14.9907 15.0271C14.9644 14.8859 14.9862 14.7587 15.0606 14.6312L14.7788 14.4668ZM14.67 15.0868L14.3493 15.1466C14.4056 15.4487 14.5637 15.6954 14.8226 15.8598L14.9975 15.5844L15.1724 15.3091C15.0762 15.248 15.016 15.163 14.9907 15.0271L14.67 15.0868ZM14.9975 15.5844L14.8356 15.8677C15.1268 16.034 15.4415 16.0907 15.7661 16.0258L15.7021 15.7059L15.6381 15.3861C15.4768 15.4183 15.3218 15.394 15.1593 15.3012L14.9975 15.5844ZM15.7021 15.7059L15.7661 16.0258C16.1006 15.9589 16.3713 15.7676 16.575 15.4825L16.3095 15.2929L16.0441 15.1033C15.9238 15.2717 15.7895 15.3558 15.6381 15.3861L15.7021 15.7059ZM16.3095 15.2929L16.5726 15.4858C16.7197 15.2852 16.9013 15.1337 17.1204 15.0277L16.9782 14.7341L16.836 14.4405C16.5198 14.5936 16.2557 14.8147 16.0465 15.1L16.3095 15.2929ZM16.9782 14.7341L17.1204 15.0277C17.3446 14.9191 17.5754 14.8659 17.8159 14.8659V14.5397V14.2135C17.4747 14.2135 17.1469 14.2899 16.836 14.4405L16.9782 14.7341Z" fill="#DBF2F8" mask="url(#path-2-inside-1_95_1339)"/>
</svg>
