<svg width="44" height="44" viewBox="0 0 44 44" fill="none" xmlns="http://www.w3.org/2000/svg">
<rect width="44" height="44" rx="22" fill="#1D82DD"/>
<path d="M19.2953 12.2974V27.5018M26.3821 15.7763V30.9807M18.3238 11.8966L12.8489 15.0805C12.6541 15.1939 12.4925 15.3563 12.3801 15.5517C12.2677 15.747 12.2086 15.9684 12.2085 16.1938V29.7051C12.2083 29.9318 12.268 30.1544 12.3813 30.3507C12.4947 30.5469 12.6579 30.7098 12.8543 30.8228C13.0507 30.9359 13.2735 30.9951 13.5001 30.9945C13.7268 30.994 13.9492 30.9337 14.1451 30.8197L18.3238 28.3883C18.6188 28.2167 18.954 28.1263 19.2953 28.1263C19.6366 28.1263 19.9718 28.2167 20.2668 28.3883L25.4106 31.3802C25.7056 31.5517 26.0408 31.6421 26.3821 31.6421C26.7234 31.6421 27.0586 31.5517 27.3536 31.3802L32.8285 28.195C33.0233 28.0816 33.1849 27.9192 33.2973 27.7238C33.4097 27.5285 33.4688 27.3071 33.4689 27.0817V13.5717C33.4691 13.3451 33.4095 13.1224 33.2961 12.9261C33.1827 12.7299 33.0196 12.567 32.8231 12.454C32.6267 12.341 32.4039 12.2817 32.1773 12.2823C31.9506 12.2828 31.7282 12.3431 31.5323 12.4571L27.3536 14.8885C27.0586 15.0601 26.7234 15.1505 26.3821 15.1505C26.0408 15.1505 25.7056 15.0601 25.4106 14.8885L20.2668 11.8979C19.9718 11.7264 19.6366 11.636 19.2953 11.636C18.954 11.636 18.6188 11.7251 18.3238 11.8966Z" stroke="white" stroke-width="1.6" stroke-linejoin="round"/>
</svg>
